<?xml version="1.0" standalone="no"?><!DOCTYPE svg PUBLIC "-//W3C//DTD SVG 1.1//EN" "http://www.w3.org/Graphics/SVG/1.1/DTD/svg11.dtd">
<svg t="1489509686235" class="icon" style="" viewBox="0 0 1024 1024" version="1.1" xmlns="http://www.w3.org/2000/svg" p-id="4085" xmlns:xlink="http://www.w3.org/1999/xlink" width="128" height="128">
<style>
    .icon {
     cursor: pointer;
    }
    .icon:hover {
        fill: red;
    }
</style>
<path d="M434.101327 662.565181c0.032746 13.95278 0.666172 28.622898 14.827707 36.798091 13.176091 7.607258 25.837458 3.595898 37.642319-4.098341 87.982844-57.341986 176.123276-114.445542 263.796058-172.260296 29.868261-19.696598 29.692253-49.393967-0.063445-68.957535-87.751576-57.69605-175.797865-114.943892-263.936251-172.044378-7.074116-4.581342-15.747659-6.691399-20.280906-8.55484-20.600177 0.491187-30.266327 11.195993-31.55774 33.898041-1.217734 21.410636-0.541329 42.932812-0.546446 64.407915C433.953971 468.690612 433.87313 565.627385 434.101327 662.565181z" p-id="4086"></path><path d="M128.822482 524.505825c1.985214 0.766456 3.245927 2.700505 3.140527 4.815679-0.763386 15.081487 1.502213 67.137073 60.229756 118.789477 0.282433-16.966417 2.990101-58.600653 21.427008-94.630241 0.830925-1.62808 2.489704-2.654456 4.322445-2.676969 0.020466 0 0.040932 0 0.058328 0 1.805112 0 3.450589 0.979304 4.308119 2.566452 5.432733 10.095939 34.088376 59.246359 92.022857 90.358961-84.83413-144.710846-37.591153-331.222727 109.285009-417.672658 2.461051-1.449002 4.90266-2.933819 9.788947-5.859451-26.979468-13.456477-53.818743-19.155269-81.334423-20.986987-84.962044-5.659907-155.839301 24.048719-213.20994 86.697571-2.520403 2.75167-5.925966 4.694929-8.918114 7.014764-9.202593 15.639189-19.454074 30.762631-27.42256 47.006594-32.988322 67.24452-41.289382 139.3917-33.850969 212.440413 3.092431 30.370705 9.015328 59.621912 17.441231 87.556125 1.696642-29.839609 8.979512-79.489402 37.168528-113.961518C124.616694 524.326746 126.853641 523.747555 128.822482 524.505825z" p-id="4087"></path><path d="M946.715311 416.516322C896.551818 191.517895 684.308903 48.225351 471.756949 70.242807c-123.114992 12.752442-225.179552 65.056692-304.32103 160.536276-12.066827 14.558577-21.150716 31.588439-31.615045 47.474244 34.986839-43.903929 74.55502-82.657558 122.591059-112.50433 162.395624-100.908224 380.920616-78.679967 509.420245 53.5578 74.189699 76.345806 111.400183 169.633469 111.904673 275.455609 0.626263 131.014916-90.561575 249.129011-215.914538 285.84626C536.512788 817.896922 396.992151 768.208243 324.322062 659.697877c-1.040702-1.551332-2.040473-3.115967-3.046383-4.677533-61.234643-28.957519-93.754291-78.553077-103.169731-94.871741-20.640086 43.23264-18.927071 94.885044-18.906605 95.41614l0.299829 7.791453-6.007831-4.969175c-59.978023-49.624211-68.134797-101.223403-68.577888-123.123178-30.843472 42.385343-32.453133 106.48115-32.245402 124.697023 67.769476 191.954847 257.212106 315.397297 470.447629 292.687062C823.888891 924.875398 1003.716536 672.177096 946.715311 416.516322z" p-id="4088"></path></svg>